<?xml version="1.0" encoding="utf-8"?>
<!-- Generated by IcoMoon.io -->
<svg version="1.1" xmlns="http://www.w3.org/2000/svg" xmlns:xlink="http://www.w3.org/1999/xlink" width="16" height="208" viewBox="0 0 16 208">
<svg id="icon-folder-upload" width="16" height="16" viewBox="0 0 16 16" x="0" y="0">
<path d="M9 4l-2-2h-7v13h16v-11h-7zM8 7.5l3.5 3.5h-2.5v4h-2v-4h-2.5l3.5-3.5z"></path>
</svg>
<svg id="icon-envelop" width="16" height="16" viewBox="0 0 16 16" x="0" y="16">
<path d="M14.5 2h-13c-0.825 0-1.5 0.675-1.5 1.5v10c0 0.825 0.675 1.5 1.5 1.5h13c0.825 0 1.5-0.675 1.5-1.5v-10c0-0.825-0.675-1.5-1.5-1.5zM6.23 8.6l-4.23 3.295v-7.838l4.23 4.543zM2.756 4h10.488l-5.244 3.938-5.244-3.938zM6.395 8.777l1.605 1.723 1.605-1.723 3.29 4.223h-9.79l3.29-4.223zM9.77 8.6l4.23-4.543v7.838l-4.23-3.295z"></path>
</svg>
<svg id="icon-search" width="16" height="16" viewBox="0 0 16 16" x="0" y="32">
<path d="M15.504 13.616l-3.79-3.223c-0.392-0.353-0.811-0.514-1.149-0.499 0.895-1.048 1.435-2.407 1.435-3.893 0-3.314-2.686-6-6-6s-6 2.686-6 6 2.686 6 6 6c1.486 0 2.845-0.54 3.893-1.435-0.016 0.338 0.146 0.757 0.499 1.149l3.223 3.79c0.552 0.613 1.453 0.665 2.003 0.115s0.498-1.452-0.115-2.003zM6 10c-2.209 0-4-1.791-4-4s1.791-4 4-4 4 1.791 4 4-1.791 4-4 4z"></path>
</svg>
<svg id="icon-briefcase" width="16" height="16" viewBox="0 0 16 16" x="0" y="48">
<path d="M15 4h-4v-1c0-0.55-0.45-1-1-1h-4c-0.55 0-1 0.45-1 1v1h-4c-0.55 0-1 0.45-1 1v9c0 0.55 0.45 1 1 1h14c0.55 0 1-0.45 1-1v-9c0-0.55-0.45-1-1-1zM6 3.002c0.001-0.001 0.001-0.001 0.002-0.002h3.996c0.001 0.001 0.001 0.001 0.002 0.002v0.998h-4v-0.998zM15 8h-2v1.5c0 0.275-0.225 0.5-0.5 0.5h-1c-0.275 0-0.5-0.225-0.5-0.5v-1.5h-6v1.5c0 0.275-0.225 0.5-0.5 0.5h-1c-0.275 0-0.5-0.225-0.5-0.5v-1.5h-2v-1h14v1z"></path>
</svg>
<svg id="icon-google-plus" width="16" height="16" viewBox="0 0 16 16" x="0" y="64">
<path d="M5.091 7.147v1.747h2.888c-0.116 0.75-0.872 2.197-2.888 2.197-1.737 0-3.156-1.441-3.156-3.216s1.419-3.216 3.156-3.216c0.991 0 1.65 0.422 2.028 0.784l1.381-1.331c-0.888-0.828-2.037-1.331-3.409-1.331-2.816 0.003-5.091 2.278-5.091 5.094s2.275 5.091 5.091 5.091c2.937 0 4.888-2.066 4.888-4.975 0-0.334-0.037-0.591-0.081-0.844h-4.806z"></path>
<path d="M16 7h-1.5v-1.5h-1.5v1.5h-1.5v1.5h1.5v1.5h1.5v-1.5h1.5z"></path>
</svg>
<svg id="icon-facebook" width="16" height="16" viewBox="0 0 16 16" x="0" y="80">
<path d="M9.5 3h2.5v-3h-2.5c-1.93 0-3.5 1.57-3.5 3.5v1.5h-2v3h2v8h3v-8h2.5l0.5-3h-3v-1.5c0-0.271 0.229-0.5 0.5-0.5z"></path>
</svg>
<svg id="icon-instagram" width="16" height="16" viewBox="0 0 16 16" x="0" y="96">
<path d="M8 1.441c2.137 0 2.391 0.009 3.231 0.047 0.781 0.034 1.203 0.166 1.484 0.275 0.372 0.144 0.641 0.319 0.919 0.597 0.281 0.281 0.453 0.547 0.6 0.919 0.109 0.281 0.241 0.706 0.275 1.484 0.037 0.844 0.047 1.097 0.047 3.231s-0.009 2.391-0.047 3.231c-0.034 0.781-0.166 1.203-0.275 1.484-0.144 0.372-0.319 0.641-0.597 0.919-0.281 0.281-0.547 0.453-0.919 0.6-0.281 0.109-0.706 0.241-1.484 0.275-0.844 0.037-1.097 0.047-3.231 0.047s-2.391-0.009-3.231-0.047c-0.781-0.034-1.203-0.166-1.484-0.275-0.372-0.144-0.641-0.319-0.919-0.597-0.281-0.281-0.453-0.547-0.6-0.919-0.109-0.281-0.241-0.706-0.275-1.484-0.038-0.844-0.047-1.097-0.047-3.231s0.009-2.391 0.047-3.231c0.034-0.781 0.166-1.203 0.275-1.484 0.144-0.372 0.319-0.641 0.597-0.919 0.281-0.281 0.547-0.453 0.919-0.6 0.281-0.109 0.706-0.241 1.484-0.275 0.841-0.038 1.094-0.047 3.231-0.047zM8 0c-2.172 0-2.444 0.009-3.297 0.047-0.85 0.038-1.434 0.175-1.941 0.372-0.528 0.206-0.975 0.478-1.419 0.925-0.447 0.444-0.719 0.891-0.925 1.416-0.197 0.509-0.334 1.091-0.372 1.941-0.037 0.856-0.047 1.128-0.047 3.3s0.009 2.444 0.047 3.297c0.038 0.85 0.175 1.434 0.372 1.941 0.206 0.528 0.478 0.975 0.925 1.419 0.444 0.444 0.891 0.719 1.416 0.922 0.509 0.197 1.091 0.334 1.941 0.372 0.853 0.037 1.125 0.047 3.297 0.047s2.444-0.009 3.297-0.047c0.85-0.037 1.434-0.175 1.941-0.372 0.525-0.203 0.972-0.478 1.416-0.922s0.719-0.891 0.922-1.416c0.197-0.509 0.334-1.091 0.372-1.941 0.037-0.853 0.047-1.125 0.047-3.297s-0.009-2.444-0.047-3.297c-0.037-0.85-0.175-1.434-0.372-1.941-0.197-0.531-0.469-0.978-0.916-1.422-0.444-0.444-0.891-0.719-1.416-0.922-0.509-0.197-1.091-0.334-1.941-0.372-0.856-0.041-1.128-0.050-3.3-0.050v0z"></path>
<path d="M8 3.891c-2.269 0-4.109 1.841-4.109 4.109s1.841 4.109 4.109 4.109 4.109-1.841 4.109-4.109c0-2.269-1.841-4.109-4.109-4.109zM8 10.666c-1.472 0-2.666-1.194-2.666-2.666s1.194-2.666 2.666-2.666c1.472 0 2.666 1.194 2.666 2.666s-1.194 2.666-2.666 2.666z"></path>
<path d="M13.231 3.728c0 0.53-0.43 0.959-0.959 0.959s-0.959-0.43-0.959-0.959c0-0.53 0.43-0.959 0.959-0.959s0.959 0.43 0.959 0.959z"></path>
</svg>
<svg id="icon-twitter" width="16" height="16" viewBox="0 0 16 16" x="0" y="112">
<path d="M16 3.538c-0.588 0.263-1.222 0.438-1.884 0.516 0.678-0.406 1.197-1.050 1.444-1.816-0.634 0.375-1.338 0.65-2.084 0.797-0.6-0.638-1.453-1.034-2.397-1.034-1.813 0-3.281 1.469-3.281 3.281 0 0.256 0.028 0.506 0.084 0.747-2.728-0.138-5.147-1.444-6.766-3.431-0.281 0.484-0.444 1.050-0.444 1.65 0 1.138 0.578 2.144 1.459 2.731-0.538-0.016-1.044-0.166-1.488-0.409 0 0.013 0 0.028 0 0.041 0 1.591 1.131 2.919 2.634 3.219-0.275 0.075-0.566 0.116-0.866 0.116-0.212 0-0.416-0.022-0.619-0.059 0.419 1.303 1.631 2.253 3.066 2.281-1.125 0.881-2.538 1.406-4.078 1.406-0.266 0-0.525-0.016-0.784-0.047 1.456 0.934 3.181 1.475 5.034 1.475 6.037 0 9.341-5.003 9.341-9.341 0-0.144-0.003-0.284-0.009-0.425 0.641-0.459 1.197-1.038 1.637-1.697z"></path>
</svg>
<svg id="icon-youtube" width="16" height="16" viewBox="0 0 16 16" x="0" y="128">
<path d="M15.841 4.8c0 0-0.156-1.103-0.637-1.587-0.609-0.637-1.291-0.641-1.603-0.678-2.237-0.163-5.597-0.163-5.597-0.163h-0.006c0 0-3.359 0-5.597 0.163-0.313 0.038-0.994 0.041-1.603 0.678-0.481 0.484-0.634 1.587-0.634 1.587s-0.159 1.294-0.159 2.591v1.213c0 1.294 0.159 2.591 0.159 2.591s0.156 1.103 0.634 1.588c0.609 0.637 1.409 0.616 1.766 0.684 1.281 0.122 5.441 0.159 5.441 0.159s3.363-0.006 5.6-0.166c0.313-0.037 0.994-0.041 1.603-0.678 0.481-0.484 0.637-1.588 0.637-1.588s0.159-1.294 0.159-2.591v-1.213c-0.003-1.294-0.162-2.591-0.162-2.591zM6.347 10.075v-4.497l4.322 2.256-4.322 2.241z"></path>
</svg>
<svg id="icon-dropbox" width="16" height="16" viewBox="0 0 16 16" x="0" y="144">
<path d="M11.5 0.5l-3.5 3 4.5 3 3.5-3z"></path>
<path d="M8 3.5l-3.5-3-4.5 3 3.5 3z"></path>
<path d="M12.5 6.5l3.5 3-4.5 2.5-3.5-3z"></path>
<path d="M8 9l-4.5-2.5-3.5 3 4.5 2.5z"></path>
<path d="M11.377 13.212l-3.377-2.895-3.377 2.895-2.123-1.179v1.467l5.5 2.5 5.5-2.5v-1.467z"></path>
</svg>
<svg id="icon-tumblr" width="16" height="16" viewBox="0 0 16 16" x="0" y="160">
<path d="M9.001 7l-0 3.659c0 0.928-0.012 1.463 0.086 1.727 0.098 0.262 0.342 0.534 0.609 0.691 0.354 0.212 0.758 0.318 1.214 0.318 0.81 0 1.289-0.107 2.090-0.633v2.405c-0.683 0.321-1.279 0.509-1.833 0.639-0.555 0.129-1.154 0.194-1.798 0.194-0.732 0-1.163-0.092-1.725-0.276-0.562-0.185-1.042-0.45-1.438-0.79-0.398-0.343-0.672-0.706-0.826-1.091s-0.23-0.944-0.23-1.676v-5.611h-2.147v-2.266c0.628-0.204 1.331-0.497 1.778-0.877 0.449-0.382 0.809-0.839 1.080-1.374 0.272-0.534 0.459-1.214 0.561-2.039h2.579l-0 4h3.999v3h-3.999z"></path>
</svg>
<svg id="icon-linkedin2" width="16" height="16" viewBox="0 0 16 16" x="0" y="176">
<path d="M6 6h2.767v1.418h0.040c0.385-0.691 1.327-1.418 2.732-1.418 2.921 0 3.461 1.818 3.461 4.183v4.817h-2.885v-4.27c0-1.018-0.021-2.329-1.5-2.329-1.502 0-1.732 1.109-1.732 2.255v4.344h-2.883v-9z"></path>
<path d="M1 6h3v9h-3v-9z"></path>
<path d="M4 3.5c0 0.828-0.672 1.5-1.5 1.5s-1.5-0.672-1.5-1.5c0-0.828 0.672-1.5 1.5-1.5s1.5 0.672 1.5 1.5z"></path>
</svg>
<svg id="icon-pinterest2" width="16" height="16" viewBox="0 0 16 16" x="0" y="192">
<path d="M8 0c-4.412 0-8 3.587-8 8s3.587 8 8 8 8-3.588 8-8-3.588-8-8-8zM8 14.931c-0.716 0-1.403-0.109-2.053-0.309 0.281-0.459 0.706-1.216 0.862-1.816 0.084-0.325 0.431-1.647 0.431-1.647 0.225 0.431 0.888 0.797 1.587 0.797 2.091 0 3.597-1.922 3.597-4.313 0-2.291-1.869-4.003-4.272-4.003-2.991 0-4.578 2.009-4.578 4.194 0 1.016 0.541 2.281 1.406 2.684 0.131 0.063 0.2 0.034 0.231-0.094 0.022-0.097 0.141-0.566 0.194-0.787 0.016-0.069 0.009-0.131-0.047-0.2-0.287-0.347-0.516-0.988-0.516-1.581 0-1.528 1.156-3.009 3.128-3.009 1.703 0 2.894 1.159 2.894 2.819 0 1.875-0.947 3.175-2.178 3.175-0.681 0-1.191-0.563-1.025-1.253 0.197-0.825 0.575-1.713 0.575-2.306 0-0.531-0.284-0.975-0.878-0.975-0.697 0-1.253 0.719-1.253 1.684 0 0.612 0.206 1.028 0.206 1.028s-0.688 2.903-0.813 3.444c-0.141 0.6-0.084 1.441-0.025 1.988-2.578-1.006-4.406-3.512-4.406-6.45 0-3.828 3.103-6.931 6.931-6.931s6.931 3.103 6.931 6.931c0 3.828-3.103 6.931-6.931 6.931z"></path>
</svg>
</svg>
